<svg enable-background="new 0 0 64 64" height="512" viewBox="0 0 64 64" width="512" xmlns="http://www.w3.org/2000/svg"><g id="Layer_4"><g><path d="m50.74 10.62c0-3.58-2.91-6.5-6.5-6.5h-24.48c-3.59 0-6.5 2.92-6.5 6.5v42.76c0 3.58 2.91 6.5 6.5 6.5h24.48c3.59 0 6.5-2.92 6.5-6.5z" fill="#e4e4e4"/><g fill="#ed1c24"><path d="m41.4 33.02c.359-.21.59-.6.59-1.03s-.23-.82-.59-1.02c-3.99-2.3-6.95-5.34-8.32-8.56-.18-.43-.61-.71-1.08-.71s-.9.28-1.08.71c-1.37 3.22-4.32 6.26-8.31 8.56-.37.2-.6.6-.6 1.02 0 .43.23.82.59 1.02 3.99 2.32 6.95 5.37 8.32 8.58.18.43.61.71 1.08.71s.9-.28 1.08-.71c1.37-3.21 4.33-6.26 8.32-8.57z"/><path d="m25.18 20.68c.07.2.26.34.47.34h1.8c.01-.01.01 0 .02 0 .28 0 .5-.23.5-.5 0-.11-.03-.21-.09-.29l-4.4-12.91c-.07-.2-.26-.34-.48-.34h-2.02c-.22 0-.41.14-.48.34l-4.43 13.03c-.05.16-.02.33.07.46.1.13.25.21.41.21h1.74c.21 0 .41-.14.47-.35l1.24-3.75h3.9zm-4.5-6.08c.3-.93.86-2.67 1.27-3.97.4 1.3.97 3.04 1.27 3.97z"/><path d="m47.45 42.98h-1.8c-.21 0-.4.14-.471.34l-1.279 3.76h-3.9l-1.24-3.75c-.06-.21-.26-.35-.47-.35h-1.74c-.16 0-.31.08-.41.21-.09.13-.12.3-.069.46l4.43 13.03c.07.2.26.34.48.34h2.019c.22 0 .41-.14.48-.34l4.449-13.03c.051-.16.021-.32-.069-.46-.1-.13-.25-.21-.41-.21zm-5.5 10.39c-.41-1.3-.97-3.04-1.271-3.97h2.54c-.299.93-.869 2.67-1.269 3.97z"/></g></g></g></svg>